<svg width="300" height="178" viewBox="0 0 300 178" fill="none" xmlns="http://www.w3.org/2000/svg">
<rect width="300" height="178" fill="white"/>
<path d="M90.927 36.79C87.819 36.79 85.155 35.791 82.935 33.793C80.937 31.573 79.938 29.02 79.938 26.134C79.938 22.36 81.159 19.141 83.601 16.477C86.265 13.813 89.373 12.481 92.925 12.481C96.033 12.481 98.697 13.591 100.917 15.811C103.137 18.031 104.247 20.806 104.247 24.136C104.247 27.688 102.915 30.685 100.251 33.127C97.587 35.569 94.479 36.79 90.927 36.79ZM54.297 161.665C50.301 161.665 47.082 160.222 44.64 157.336C42.42 154.228 41.31 150.232 41.31 145.348C41.31 139.132 42.531 132.472 44.973 125.368C47.637 118.264 50.634 111.16 53.964 104.056C57.516 96.73 60.624 89.848 63.288 83.41C64.398 80.302 65.397 77.527 66.285 75.085C67.173 72.643 67.617 70.645 67.617 69.091C67.617 66.871 66.618 65.761 64.62 65.761C61.956 65.761 59.292 67.426 56.628 70.756C53.964 74.086 51.522 77.86 49.302 82.078C47.304 86.074 45.639 89.293 44.307 91.735C40.977 98.173 37.314 104.833 33.318 111.715C29.544 118.597 25.659 124.924 21.663 130.696C21.663 130.918 21.441 131.029 20.997 131.029C20.553 131.029 19.998 130.696 19.332 130.03C18.666 129.364 18.444 128.92 18.666 128.698C22.884 122.704 26.769 116.377 30.321 109.717C34.095 102.835 37.536 96.286 40.644 90.07C42.864 85.408 45.306 80.635 47.97 75.751C50.856 70.645 54.186 66.427 57.96 63.097C61.734 59.545 66.063 57.769 70.947 57.769C73.167 57.769 75.72 58.324 78.606 59.434C81.936 60.766 83.601 63.652 83.601 68.092C83.601 70.312 83.157 72.976 82.269 76.084C81.603 78.97 80.604 82.3 79.272 86.074C76.386 93.622 73.167 101.281 69.615 109.051C66.285 116.599 63.177 124.258 60.291 132.028C58.071 138.022 56.961 143.35 56.961 148.012C56.961 153.118 58.626 155.671 61.956 155.671C65.064 155.671 69.837 152.896 76.275 147.346C82.713 141.574 88.707 134.359 94.257 125.701C99.807 116.821 106.467 104.944 114.237 90.07C114.459 89.626 114.903 89.404 115.569 89.404C116.013 89.404 116.457 89.737 116.901 90.403C117.567 90.847 117.789 91.291 117.567 91.735C105.801 114.601 95.256 132.028 85.932 144.016C76.608 155.782 66.063 161.665 54.297 161.665Z" fill="#3AC162"/>
<path d="M131.121 161.665C122.463 161.665 118.134 157.003 118.134 147.679C118.134 139.909 121.575 128.587 128.457 113.713C130.233 109.939 132.12 105.499 134.118 100.393C136.338 95.065 138.114 89.848 139.446 84.742C141 79.414 141.777 75.085 141.777 71.755C141.777 67.759 140.556 65.761 138.114 65.761C135.45 65.761 132.786 67.426 130.122 70.756C127.458 73.864 125.016 77.527 122.796 81.745C120.798 85.741 119.133 88.96 117.801 91.402C114.471 97.84 110.697 104.722 106.479 112.048C102.483 119.374 98.4871 125.923 94.4911 131.695C94.4911 131.695 94.3801 131.806 94.1581 132.028C94.1581 132.028 93.9361 132.028 93.4921 132.028C93.0481 132.028 92.3821 131.917 91.4941 131.695C90.8281 131.251 90.6061 130.918 90.8281 130.696C95.0461 124.48 99.1531 117.598 103.149 110.05C107.367 102.502 111.03 95.62 114.138 89.404C116.358 84.742 118.8 79.969 121.464 75.085C124.35 70.201 127.569 66.094 131.121 62.764C134.895 59.434 139.224 57.769 144.108 57.769C146.55 57.769 149.214 58.324 152.1 59.434C155.874 60.766 157.761 64.318 157.761 70.09C157.761 78.304 153.654 92.068 145.44 111.382C141.444 120.706 138.447 128.587 136.449 135.025C134.673 141.241 133.785 146.125 133.785 149.677C133.785 153.895 135.228 156.004 138.114 156.004C141.222 156.004 146.217 153.118 153.099 147.346C158.871 142.24 164.421 136.024 169.749 128.698C175.077 121.15 180.738 111.16 186.732 98.728C188.508 84.298 191.172 74.308 194.724 68.758C198.276 63.208 201.495 60.433 204.381 60.433C206.379 60.433 208.044 61.432 209.376 63.43C210.93 65.428 211.707 67.981 211.707 71.089C211.707 75.085 210.264 80.413 207.378 87.073C204.714 93.733 201.384 101.836 197.388 111.382C193.836 119.596 191.172 126.7 189.396 132.694C187.62 138.688 186.732 143.572 186.732 147.346C186.732 153.34 188.841 156.337 193.059 156.337C197.277 156.337 203.382 153.34 211.374 147.346C218.478 142.018 223.695 136.801 227.025 131.695C230.577 126.367 232.908 122.593 234.018 120.373C233.13 116.821 232.686 111.493 232.686 104.389C232.686 102.391 232.686 100.393 232.686 98.395C232.908 96.175 233.13 94.288 233.352 92.734C234.462 81.19 237.348 72.532 242.01 66.76C246.672 60.766 250.89 57.769 254.664 57.769C259.326 57.769 261.657 60.877 261.657 67.093C261.657 70.645 260.658 75.307 258.66 81.079C256.662 86.629 254.22 92.29 251.334 98.062C248.67 103.834 246.117 108.94 243.675 113.38C241.455 117.598 239.901 120.262 239.013 121.372C239.013 121.372 239.346 122.704 240.012 125.368C240.9 127.81 242.121 130.363 243.675 133.027C245.451 135.469 247.782 136.69 250.668 136.69C253.998 136.69 257.217 134.803 260.325 131.029C263.655 127.255 266.763 122.815 269.649 117.709C272.535 112.381 275.088 107.719 277.308 103.723C277.974 103.057 278.529 102.724 278.973 102.724C279.639 102.724 280.083 103.057 280.305 103.723C280.749 104.167 280.749 104.833 280.305 105.721C276.975 111.493 273.867 117.043 270.981 122.371C268.095 127.699 264.987 132.028 261.657 135.358C258.327 138.688 254.331 140.353 249.669 140.353C245.451 140.353 242.121 138.577 239.679 135.025C237.459 131.473 236.127 128.587 235.683 126.367C233.241 130.141 229.578 134.803 224.694 140.353C220.032 145.903 214.482 150.898 208.044 155.338C201.606 159.556 194.502 161.665 186.732 161.665C181.848 161.665 178.296 160.222 176.076 157.336C174.078 154.45 173.079 150.565 173.079 145.681C173.079 142.573 173.412 139.354 174.078 136.024C174.966 132.472 175.965 128.698 177.075 124.702C170.193 135.58 162.645 144.46 154.431 151.342C146.439 158.224 138.669 161.665 131.121 161.665Z" fill="#3AC162"/>
</svg>
