<svg width="1358" height="385" viewBox="0 0 1358 385" fill="none" xmlns="http://www.w3.org/2000/svg">
<g clip-path="url(#clip0_1_2)">
<rect width="1358" height="385" fill="white"/>
<path d="M82.543 45.46C81.8926 47.8447 80.5918 50.2295 78.6406 52.6143C76.9062 54.7822 74.8467 56.625 72.4619 58.1426C70.2939 59.4434 68.0176 60.3105 65.6328 60.7441C63.248 61.1777 61.2969 60.7441 59.7793 59.4434C55.2266 55.9746 52.8418 52.2891 52.625 48.3867C52.4082 44.2676 53.3838 40.4736 55.5518 37.0049C57.7197 33.3193 60.4297 30.2842 63.6816 27.8994C66.9336 25.2979 69.752 23.7803 72.1367 23.3467C74.5215 22.9131 76.4727 23.4551 77.9902 24.9727C79.7246 26.2734 81.0254 28.1162 81.8926 30.501C82.7598 32.6689 83.1934 35.1621 83.1934 37.9805C83.4102 40.7988 83.1934 43.292 82.543 45.46ZM37.666 114.727C38.75 113.426 40.8096 112.342 43.8447 111.475C46.8799 110.607 50.0234 109.957 53.2754 109.523C56.5273 108.873 59.4541 108.548 62.0557 108.548C64.874 108.331 66.5 108.331 66.9336 108.548C67.1504 108.765 66.6084 111.041 65.3076 115.377C64.0068 119.713 62.3809 124.808 60.4297 130.661C58.4785 136.515 56.4189 142.585 54.251 148.872C52.083 154.942 50.457 159.929 49.373 163.831C48.2891 167.733 46.9883 172.178 45.4707 177.164C43.9531 181.934 42.5439 186.703 41.2432 191.473C40.1592 196.025 39.4004 200.361 38.9668 204.48C38.5332 208.6 38.8584 211.743 39.9424 213.911C41.0264 216.513 42.2188 218.355 43.5195 219.439C44.8203 220.307 46.2295 220.74 47.7471 220.74C52.083 220.74 57.5029 218.355 64.0068 213.586C70.7275 208.816 77.4482 203.18 84.1689 196.676C91.1064 189.955 97.502 183.234 103.355 176.514C109.209 169.576 113.545 164.048 116.363 159.929C118.098 157.761 119.832 156.352 121.566 155.701C123.518 155.051 125.035 155.159 126.119 156.026C127.42 156.894 128.07 158.303 128.07 160.254C128.287 162.205 127.637 164.481 126.119 167.083C122.65 173.153 117.556 180.416 110.835 188.871C104.114 197.109 96.96 205.131 89.3721 212.936C81.7842 220.523 74.3047 227.027 66.9336 232.447C59.7793 237.867 53.9258 240.686 49.373 240.902C45.6875 241.119 42.002 240.469 38.3164 238.951C34.8477 237.65 31.5957 235.808 28.5605 233.423C25.7422 230.821 23.3574 227.895 21.4062 224.643C19.4551 221.174 18.3711 217.597 18.1543 213.911C17.5039 208.491 17.5039 201.12 18.1543 191.798C18.8047 182.259 19.9971 172.611 21.7314 162.855C23.4658 152.883 25.6338 143.452 28.2354 134.563C31.0537 125.675 34.1973 119.062 37.666 114.727ZM198.963 245.13C193.977 245.13 189.641 244.154 185.955 242.203C182.486 240.469 179.668 238.084 177.5 235.049C175.332 232.014 173.923 228.545 173.272 224.643C172.622 220.523 172.839 216.188 173.923 211.635C174.573 208.6 175.657 204.589 177.175 199.603C178.692 194.399 180.21 188.871 181.728 183.018C183.462 176.947 184.979 170.985 186.28 165.132C187.798 159.062 188.773 153.642 189.207 148.872C189.641 143.886 189.424 139.875 188.557 136.84C187.689 133.588 185.847 131.962 183.028 131.962C179.56 131.962 175.982 133.154 172.297 135.539C168.611 137.707 164.817 140.742 160.915 144.645C157.229 148.547 153.436 153.1 149.533 158.303C145.848 163.289 142.162 168.492 138.477 173.912C136.525 181.283 134.899 187.787 133.599 193.424C132.298 198.844 131.105 203.83 130.021 208.383C129.154 212.719 128.287 216.621 127.42 220.09C126.553 223.342 125.794 226.485 125.144 229.521C124.493 231.688 122.542 233.856 119.29 236.024C116.038 237.976 112.569 239.602 108.884 240.902C105.198 242.203 102.055 242.854 99.4531 242.854C96.6348 242.854 95.4424 241.878 95.876 239.927C96.0928 238.626 96.8516 235.699 98.1523 231.146C99.2363 226.594 100.646 221.282 102.38 215.212C103.897 208.925 105.523 202.312 107.258 195.375C108.992 188.438 110.618 181.825 112.136 175.538C113.22 170.552 114.412 165.023 115.713 158.953C116.797 153.75 118.098 147.68 119.615 140.742C121.35 133.805 123.301 126.217 125.469 117.979C126.986 116.678 128.504 115.702 130.021 115.052C131.756 114.185 133.49 113.534 135.225 113.101C136.959 112.45 138.802 112.017 140.753 111.8C142.487 111.8 144.222 111.908 145.956 112.125C147.474 112.342 148.991 112.775 150.509 113.426C152.243 113.859 153.761 114.618 155.062 115.702C154.411 117.22 153.652 119.388 152.785 122.206C151.918 124.808 151.051 127.626 150.184 130.661C149.316 134.13 148.232 137.707 146.932 141.393C149.75 137.49 152.894 133.588 156.362 129.686C160.048 125.566 163.95 121.881 168.069 118.629C172.405 115.377 176.958 112.775 181.728 110.824C186.497 108.656 191.375 107.572 196.361 107.572C200.48 107.572 204.166 108.765 207.418 111.149C210.67 113.534 213.163 116.895 214.897 121.23C216.849 125.35 217.933 130.336 218.149 136.189C218.583 142.043 217.824 148.438 215.873 155.376L212.296 169.685C211.212 174.237 209.803 179.657 208.068 185.944C206.551 192.015 204.6 198.735 202.215 206.106C200.914 210.876 200.372 214.995 200.589 218.464C201.022 221.933 203.19 223.667 207.093 223.667C210.995 223.667 215.873 221.282 221.727 216.513C227.797 211.743 233.867 205.998 239.938 199.277C246.008 192.557 251.753 185.728 257.173 178.79C262.593 171.636 266.712 165.891 269.53 161.555C271.481 158.736 273.324 156.894 275.059 156.026C276.793 155.159 278.094 155.051 278.961 155.701C280.045 156.352 280.587 157.869 280.587 160.254C280.587 162.422 279.72 165.24 277.985 168.709C276.468 171.744 274.083 175.755 270.831 180.741C267.796 185.728 264.11 191.039 259.774 196.676C255.438 202.312 250.777 208.058 245.791 213.911C240.805 219.548 235.602 224.751 230.182 229.521C224.762 234.073 219.342 237.759 213.922 240.577C208.719 243.612 203.732 245.13 198.963 245.13ZM341.724 117.328C344.542 115.16 347.252 113.534 349.854 112.45C352.672 111.149 355.165 110.282 357.333 109.849C359.718 109.198 362.103 108.981 364.487 109.198C370.341 109.632 373.918 111.475 375.219 114.727C376.736 117.979 376.953 123.182 375.869 130.336C375.219 134.021 373.918 138.683 371.967 144.319C370.016 149.956 367.739 156.894 365.138 165.132C362.536 173.153 359.718 182.367 356.683 192.773C353.864 203.18 351.154 214.887 348.553 227.895C345.951 238.518 343.133 250.767 340.098 264.642C337.496 276.782 334.353 291.416 330.667 308.543C327.198 325.67 323.404 345.29 319.285 367.403C318.201 372.823 315.816 375.967 312.131 376.834C308.662 377.701 304.977 377.268 301.074 375.533C299.557 374.666 298.147 373.69 296.847 372.606C295.763 371.522 294.57 370.222 293.27 368.704C291.969 367.403 290.885 365.561 290.018 363.176C295.004 344.965 299.34 328.38 303.025 313.421C306.928 298.462 310.396 285.454 313.432 274.397C316.684 261.606 319.719 250.116 322.537 239.927C323.621 235.374 324.597 230.93 325.464 226.594C326.548 222.041 327.632 217.597 328.716 213.261C325.897 217.813 322.862 222.149 319.61 226.269C316.358 230.388 312.781 233.965 308.879 237C304.977 240.035 300.749 242.312 296.196 243.829C291.86 245.563 287.308 246.105 282.538 245.455C270.831 243.938 262.484 239.602 257.498 232.447C252.729 225.293 250.669 215.971 251.319 204.48C251.536 199.928 252.187 194.941 253.271 189.521C254.354 184.102 255.547 178.898 256.848 173.912C258.148 168.926 259.341 164.481 260.425 160.579C261.726 156.46 262.701 153.533 263.352 151.799C265.953 143.561 267.796 136.515 268.88 130.661C270.181 124.808 269.313 119.93 266.278 116.027C269.313 114.076 272.132 112.775 274.733 112.125C277.552 111.258 280.045 110.607 282.213 110.174C284.598 109.957 286.982 109.957 289.367 110.174C295.221 111.041 298.581 113.209 299.448 116.678C300.532 120.146 300.207 125.35 298.473 132.287C297.605 135.973 296.196 140.742 294.245 146.596C292.294 152.232 290.234 158.086 288.066 164.156C285.898 170.227 283.947 175.863 282.213 181.066C280.479 186.053 279.503 189.63 279.286 191.798C277.335 201.554 277.227 209.142 278.961 214.562C280.695 219.765 284.489 222.366 290.343 222.366C293.161 222.366 296.305 221.174 299.773 218.789C303.242 216.188 306.711 212.827 310.18 208.708C313.865 204.589 317.442 199.928 320.911 194.725C324.38 189.305 327.523 183.885 330.342 178.465C333.377 173.045 335.979 167.733 338.146 162.53C340.531 157.327 342.266 152.666 343.35 148.547C344.867 140.525 345.843 134.238 346.276 129.686C346.71 125.133 345.192 121.014 341.724 117.328ZM558.304 172.286C555.269 176.622 551.366 182.042 546.597 188.546C541.827 194.833 536.841 201.229 531.638 207.732C526.651 214.02 521.665 219.873 516.679 225.293C511.909 230.496 507.898 234.182 504.646 236.35C502.479 237.65 499.985 238.734 497.167 239.602C494.349 240.469 491.422 241.011 488.387 241.228C485.568 241.444 482.858 241.228 480.257 240.577C477.655 240.144 475.379 239.276 473.428 237.976C471.477 236.458 469.851 234.29 468.55 231.472C467.466 229.087 466.382 225.943 465.298 222.041C464.431 218.139 464.105 213.261 464.322 207.407C459.119 216.079 453.374 222.8 447.087 227.569C440.8 232.122 434.838 235.482 429.201 237.65C422.697 240.035 416.193 241.444 409.689 241.878C406.654 241.878 403.402 240.794 399.934 238.626C396.465 236.675 393.538 233.531 391.153 229.195C388.769 224.643 387.251 218.897 386.601 211.96C385.95 204.806 386.817 196.351 389.202 186.595C392.237 173.37 397.007 161.338 403.511 150.498C410.231 139.658 417.494 130.444 425.299 122.856C433.104 115.052 440.8 109.198 448.388 105.296C455.976 101.394 462.263 99.6592 467.249 100.093C473.103 101.177 477.872 102.911 481.558 105.296C484.593 107.464 486.544 110.716 487.411 115.052C488.495 119.171 486.761 124.699 482.208 131.637C485.243 130.986 487.736 130.553 489.688 130.336C491.855 130.119 493.481 130.011 494.565 130.011C495.866 130.011 496.733 130.119 497.167 130.336C497.384 130.77 497.492 131.745 497.492 133.263C497.492 134.563 497.167 137.057 496.517 140.742C495.866 144.428 494.891 149.414 493.59 155.701C492.289 161.988 490.555 170.118 488.387 180.091C487.953 182.042 487.52 183.885 487.086 185.619C486.869 187.137 486.544 188.763 486.11 190.497C485.894 192.015 485.568 193.857 485.135 196.025C484.701 198.193 484.159 200.903 483.509 204.155C483.292 206.106 483.184 208.274 483.184 210.659C483.4 212.827 483.834 214.887 484.484 216.838C485.135 218.789 486.11 220.415 487.411 221.716C488.929 222.8 490.988 223.342 493.59 223.342C495.758 223.342 498.576 222.041 502.045 219.439C505.514 216.621 509.199 213.152 513.102 209.033C517.004 204.697 521.015 200.036 525.134 195.05C529.47 189.847 533.48 184.86 537.166 180.091C540.852 175.321 544.104 171.094 546.922 167.408C549.957 163.723 552.125 161.013 553.426 159.278C555.16 157.327 556.895 156.243 558.629 156.026C560.363 155.593 561.664 156.026 562.531 157.327C563.398 158.628 563.507 160.579 562.856 163.181C562.423 165.782 560.905 168.817 558.304 172.286ZM463.021 186.595C464.105 182.259 465.406 177.164 466.924 171.311C468.441 165.457 469.742 159.82 470.826 154.4C471.91 148.98 472.669 144.536 473.103 141.067C473.753 137.382 473.645 135.647 472.777 135.864C471.693 136.081 470.501 136.406 469.2 136.84C468.116 137.273 466.707 137.599 464.973 137.815C463.238 138.032 461.504 138.357 459.77 138.791C461.504 135.322 462.479 132.504 462.696 130.336C463.13 127.951 463.238 126.108 463.021 124.808C462.805 123.29 462.371 122.098 461.721 121.23C459.336 119.279 455.108 120.905 449.038 126.108C443.185 131.095 436.355 140.417 428.551 154.075C425.299 159.712 422.697 165.782 420.746 172.286C418.795 178.573 417.386 184.535 416.519 190.172C415.868 195.809 415.76 200.795 416.193 205.131C416.627 209.25 417.494 211.96 418.795 213.261C421.18 215.646 423.89 216.838 426.925 216.838C429.96 216.621 432.995 215.754 436.03 214.236C439.282 212.502 442.426 210.334 445.461 207.732C448.713 205.131 451.531 202.421 453.916 199.603C456.518 196.784 458.577 194.183 460.095 191.798C461.829 189.413 462.805 187.679 463.021 186.595ZM705.617 184.644C704.1 186.812 701.606 189.955 698.138 194.074C694.886 198.193 690.875 202.638 686.105 207.407C681.553 212.177 676.241 217.163 670.171 222.366C664.317 227.353 658.03 231.905 651.31 236.024C650.442 241.011 648.816 248.057 646.432 257.162C644.047 266.484 640.903 276.565 637.001 287.405C633.099 298.245 628.546 309.193 623.343 320.25C618.14 331.523 612.286 341.713 605.782 350.818C599.495 360.141 592.558 367.62 584.97 373.257C577.382 379.11 569.36 382.037 560.905 382.037C552.45 382.037 545.838 380.628 541.068 377.81C536.299 374.991 532.83 371.306 530.662 366.753C528.277 362.417 526.868 357.539 526.435 352.119C526.001 346.916 525.893 341.821 526.109 336.835C526.326 330.331 528.277 322.743 531.963 314.071C535.648 305.616 540.743 296.944 547.247 288.056C553.968 279.384 561.989 271.037 571.312 263.016C580.634 255.211 591.04 248.599 602.53 243.179C608.167 240.794 613.37 238.518 618.14 236.35C622.909 233.965 627.354 231.688 631.473 229.521C633.207 222.366 633.315 217.597 631.798 215.212C630.497 212.827 628.546 211.635 625.944 211.635C622.042 211.635 617.381 213.369 611.961 216.838C606.758 220.307 600.254 225.727 592.449 233.098C590.281 233.314 588.33 233.098 586.596 232.447C585.078 231.58 583.777 230.604 582.693 229.521C581.393 228.437 580.309 227.136 579.441 225.618C577.057 221.933 575.973 218.247 576.189 214.562C576.623 210.876 578.357 207.949 581.393 205.781C584.428 203.396 588.872 199.603 594.726 194.399C600.796 188.979 606.649 182.15 612.286 173.912C614.021 171.527 616.08 168.601 618.465 165.132C621.066 161.446 623.56 157.544 625.944 153.425C628.546 149.089 630.931 144.645 633.099 140.092C635.483 135.539 637.326 131.203 638.627 127.084C634.291 126.434 628.004 126.542 619.766 127.409C615.43 128.276 610.769 129.252 605.782 130.336C601.446 131.42 596.46 132.829 590.823 134.563C585.403 136.298 579.658 138.683 573.588 141.718C572.721 141.284 572.07 140.417 571.637 139.116C571.203 137.815 570.878 136.298 570.661 134.563C570.444 132.612 570.336 130.444 570.336 128.06C570.336 125.024 570.77 122.531 571.637 120.58C572.721 118.412 574.021 116.678 575.539 115.377C577.057 114.076 578.683 113.101 580.417 112.45C582.151 111.583 583.669 110.933 584.97 110.499C586.487 110.065 589.414 109.523 593.75 108.873C598.303 108.006 603.397 107.247 609.034 106.597C614.671 105.946 620.524 105.513 626.595 105.296C632.665 104.862 638.193 104.754 643.18 104.971C653.369 105.621 659.765 107.03 662.366 109.198C665.185 111.149 665.943 114.293 664.643 118.629C663.125 122.965 660.198 130.336 655.862 140.742C651.526 150.932 644.914 162.747 636.025 176.188C632.34 181.175 628.979 185.836 625.944 190.172C622.909 194.508 619.982 198.302 617.164 201.554C620.85 199.819 624.535 198.519 628.221 197.651C631.906 196.567 635.592 196.025 639.277 196.025C644.264 196.025 647.516 198.41 649.033 203.18C650.768 207.949 651.743 213.152 651.96 218.789C660.632 213.369 668.328 207.624 675.049 201.554C681.986 195.483 689.357 187.679 697.162 178.14C699.113 175.755 700.848 174.346 702.365 173.912C704.1 173.479 705.4 173.804 706.268 174.888C707.135 175.755 707.568 177.164 707.568 179.115C707.568 180.85 706.918 182.692 705.617 184.644ZM624.318 255.536C624.752 253.802 625.186 252.176 625.619 250.658C626.27 249.357 626.812 247.948 627.245 246.431C615.972 252.718 605.674 259.33 596.352 266.268C587.029 273.422 578.899 280.901 571.962 288.706C565.241 296.511 559.93 304.641 556.027 313.096C552.125 321.551 549.957 330.114 549.523 338.786C549.307 343.989 550.065 348.434 551.8 352.119C553.751 355.805 557.111 357.647 561.881 357.647C567.084 357.647 572.612 353.854 578.466 346.266C584.536 338.895 590.39 329.789 596.026 318.949C601.88 308.326 607.3 297.161 612.286 285.454C617.272 273.964 621.283 263.991 624.318 255.536ZM855.207 180.741C852.172 188.546 848.703 196.134 844.801 203.505C840.898 210.876 836.562 217.488 831.793 223.342C827.023 229.195 821.929 233.856 816.509 237.325C811.089 240.794 805.235 242.528 798.948 242.528C788.759 242.528 781.062 239.168 775.859 232.447C770.656 225.51 767.079 217.055 765.128 207.082C762.093 211.635 758.841 216.188 755.372 220.74C751.903 225.293 748.218 229.304 744.315 232.772C740.413 236.241 736.402 239.06 732.283 241.228C728.164 243.396 724.045 244.479 719.926 244.479C714.289 244.479 709.52 243.287 705.617 240.902C701.715 238.518 698.463 235.266 695.861 231.146C693.477 226.811 691.742 221.933 690.658 216.513C689.574 210.876 689.032 204.914 689.032 198.627V194.725C689.032 186.703 689.683 178.465 690.983 170.01C692.284 161.555 693.693 153.75 695.211 146.596C696.945 139.441 698.68 133.263 700.414 128.06C702.148 122.64 703.449 119.062 704.316 117.328C705.834 115.16 709.086 113.101 714.072 111.149C719.275 108.981 724.37 108.114 729.356 108.548C731.741 108.765 732.934 109.74 732.934 111.475C733.15 113.209 732.934 115.377 732.283 117.979C731.416 121.664 729.898 127.192 727.73 134.563C725.562 141.935 723.286 149.956 720.901 158.628C718.733 167.3 716.782 175.863 715.048 184.318C713.313 192.773 712.446 199.819 712.446 205.456C712.446 212.394 713.53 217.38 715.698 220.415C717.866 223.45 721.227 224.968 725.779 224.968C731.199 224.968 737.161 221.933 743.665 215.862C750.386 209.792 756.89 199.494 763.177 184.969C762.96 183.668 762.852 182.367 762.852 181.066C762.852 179.766 762.852 178.356 762.852 176.839C762.852 167.083 763.177 157.761 763.827 148.872C764.694 139.983 766.212 132.179 768.38 125.458C770.765 118.737 773.908 113.426 777.811 109.523C781.93 105.621 787.241 103.67 793.745 103.67C796.347 103.67 798.515 104.429 800.249 105.946C801.983 107.464 802.851 109.632 802.851 112.45C802.851 119.388 800.357 129.252 795.371 142.043C790.602 154.617 784.856 168.492 778.136 183.668C777.485 184.535 777.052 185.402 776.835 186.27C777.485 190.389 778.244 194.725 779.111 199.277C780.195 203.83 781.604 208.058 783.339 211.96C785.073 215.646 787.133 218.789 789.518 221.391C791.902 223.775 794.721 224.968 797.973 224.968C802.742 224.968 807.078 222.691 810.98 218.139C815.1 213.586 818.677 208.058 821.712 201.554C824.964 195.05 827.782 188.221 830.167 181.066C832.552 173.695 834.395 167.191 835.695 161.555C835.045 159.17 834.503 156.894 834.069 154.726C833.636 152.341 833.419 149.631 833.419 146.596C833.419 139.875 834.395 134.13 836.346 129.36C838.297 124.591 840.79 120.688 843.825 117.653C847.077 114.401 850.438 112.017 853.906 110.499C857.592 108.981 860.952 108.223 863.987 108.223C869.407 108.223 872.117 110.607 872.117 115.377C872.117 118.846 871.25 124.916 869.516 133.588C867.781 142.043 865.288 151.69 862.036 162.53C865.938 164.265 870.925 165.132 876.995 165.132C882.632 165.132 887.835 164.481 892.604 163.181C897.374 161.663 901.71 159.82 905.612 157.652C909.515 155.484 913.092 153.1 916.344 150.498C919.596 147.896 922.739 145.403 925.774 143.019C928.159 141.284 930.11 141.176 931.628 142.693C933.146 144.211 932.929 146.596 930.978 149.848C929.243 152.666 926.208 155.918 921.872 159.604C917.753 163.289 912.658 166.866 906.588 170.335C900.734 173.587 894.122 176.405 886.751 178.79C879.597 180.958 872.009 182.042 863.987 182.042C862.687 182.042 861.277 181.934 859.76 181.717C858.242 181.5 856.725 181.175 855.207 180.741ZM972.603 45.46C971.952 47.8447 970.651 50.2295 968.7 52.6143C966.966 54.7822 964.906 56.625 962.521 58.1426C960.354 59.4434 958.077 60.3105 955.692 60.7441C953.308 61.1777 951.356 60.7441 949.839 59.4434C945.286 55.9746 942.901 52.2891 942.685 48.3867C942.468 44.2676 943.443 40.4736 945.611 37.0049C947.779 33.3193 950.489 30.2842 953.741 27.8994C956.993 25.2979 959.812 23.7803 962.196 23.3467C964.581 22.9131 966.532 23.4551 968.05 24.9727C969.784 26.2734 971.085 28.1162 971.952 30.501C972.819 32.6689 973.253 35.1621 973.253 37.9805C973.47 40.7988 973.253 43.292 972.603 45.46ZM927.726 114.727C928.81 113.426 930.869 112.342 933.904 111.475C936.939 110.607 940.083 109.957 943.335 109.523C946.587 108.873 949.514 108.548 952.115 108.548C954.934 108.331 956.56 108.331 956.993 108.548C957.21 108.765 956.668 111.041 955.367 115.377C954.066 119.713 952.44 124.808 950.489 130.661C948.538 136.515 946.479 142.585 944.311 148.872C942.143 154.942 940.517 159.929 939.433 163.831C938.349 167.733 937.048 172.178 935.53 177.164C934.013 181.934 932.604 186.703 931.303 191.473C930.219 196.025 929.46 200.361 929.026 204.48C928.593 208.6 928.918 211.743 930.002 213.911C931.086 216.513 932.278 218.355 933.579 219.439C934.88 220.307 936.289 220.74 937.807 220.74C942.143 220.74 947.562 218.355 954.066 213.586C960.787 208.816 967.508 203.18 974.229 196.676C981.166 189.955 987.562 183.234 993.415 176.514C999.269 169.576 1003.6 164.048 1006.42 159.929C1008.16 157.761 1009.89 156.352 1011.63 155.701C1013.58 155.051 1015.09 155.159 1016.18 156.026C1017.48 156.894 1018.13 158.303 1018.13 160.254C1018.35 162.205 1017.7 164.481 1016.18 167.083C1012.71 173.153 1007.62 180.416 1000.89 188.871C994.174 197.109 987.02 205.131 979.432 212.936C971.844 220.523 964.364 227.027 956.993 232.447C949.839 237.867 943.985 240.686 939.433 240.902C935.747 241.119 932.062 240.469 928.376 238.951C924.907 237.65 921.655 235.808 918.62 233.423C915.802 230.821 913.417 227.895 911.466 224.643C909.515 221.174 908.431 217.597 908.214 213.911C907.563 208.491 907.563 201.12 908.214 191.798C908.864 182.259 910.057 172.611 911.791 162.855C913.525 152.883 915.693 143.452 918.295 134.563C921.113 125.675 924.257 119.062 927.726 114.727ZM1089.02 245.13C1084.04 245.13 1079.7 244.154 1076.01 242.203C1072.55 240.469 1069.73 238.084 1067.56 235.049C1065.39 232.014 1063.98 228.545 1063.33 224.643C1062.68 220.523 1062.9 216.188 1063.98 211.635C1064.63 208.6 1065.72 204.589 1067.23 199.603C1068.75 194.399 1070.27 188.871 1071.79 183.018C1073.52 176.947 1075.04 170.985 1076.34 165.132C1077.86 159.062 1078.83 153.642 1079.27 148.872C1079.7 143.886 1079.48 139.875 1078.62 136.84C1077.75 133.588 1075.91 131.962 1073.09 131.962C1069.62 131.962 1066.04 133.154 1062.36 135.539C1058.67 137.707 1054.88 140.742 1050.97 144.645C1047.29 148.547 1043.5 153.1 1039.59 158.303C1035.91 163.289 1032.22 168.492 1028.54 173.912C1026.58 181.283 1024.96 187.787 1023.66 193.424C1022.36 198.844 1021.17 203.83 1020.08 208.383C1019.21 212.719 1018.35 216.621 1017.48 220.09C1016.61 223.342 1015.85 226.485 1015.2 229.521C1014.55 231.688 1012.6 233.856 1009.35 236.024C1006.1 237.976 1002.63 239.602 998.943 240.902C995.258 242.203 992.114 242.854 989.513 242.854C986.694 242.854 985.502 241.878 985.936 239.927C986.152 238.626 986.911 235.699 988.212 231.146C989.296 226.594 990.705 221.282 992.439 215.212C993.957 208.925 995.583 202.312 997.317 195.375C999.052 188.438 1000.68 181.825 1002.2 175.538C1003.28 170.552 1004.47 165.023 1005.77 158.953C1006.86 153.75 1008.16 147.68 1009.67 140.742C1011.41 133.805 1013.36 126.217 1015.53 117.979C1017.05 116.678 1018.56 115.702 1020.08 115.052C1021.82 114.185 1023.55 113.534 1025.28 113.101C1027.02 112.45 1028.86 112.017 1030.81 111.8C1032.55 111.8 1034.28 111.908 1036.02 112.125C1037.53 112.342 1039.05 112.775 1040.57 113.426C1042.3 113.859 1043.82 114.618 1045.12 115.702C1044.47 117.22 1043.71 119.388 1042.84 122.206C1041.98 124.808 1041.11 127.626 1040.24 130.661C1039.38 134.13 1038.29 137.707 1036.99 141.393C1039.81 137.49 1042.95 133.588 1046.42 129.686C1050.11 125.566 1054.01 121.881 1058.13 118.629C1062.46 115.377 1067.02 112.775 1071.79 110.824C1076.56 108.656 1081.43 107.572 1086.42 107.572C1090.54 107.572 1094.23 108.765 1097.48 111.149C1100.73 113.534 1103.22 116.895 1104.96 121.23C1106.91 125.35 1107.99 130.336 1108.21 136.189C1108.64 142.043 1107.88 148.438 1105.93 155.376L1102.36 169.685C1101.27 174.237 1099.86 179.657 1098.13 185.944C1096.61 192.015 1094.66 198.735 1092.27 206.106C1090.97 210.876 1090.43 214.995 1090.65 218.464C1091.08 221.933 1093.25 223.667 1097.15 223.667C1101.05 223.667 1105.93 221.282 1111.79 216.513C1117.86 211.743 1123.93 205.998 1130 199.277C1136.07 192.557 1141.81 185.728 1147.23 178.79C1152.65 171.636 1156.77 165.891 1159.59 161.555C1161.54 158.736 1163.38 156.894 1165.12 156.026C1166.85 155.159 1168.15 155.051 1169.02 155.701C1170.1 156.352 1170.65 157.869 1170.65 160.254C1170.65 162.422 1169.78 165.24 1168.04 168.709C1166.53 171.744 1164.14 175.755 1160.89 180.741C1157.86 185.728 1154.17 191.039 1149.83 196.676C1145.5 202.312 1140.84 208.058 1135.85 213.911C1130.86 219.548 1125.66 224.751 1120.24 229.521C1114.82 234.073 1109.4 237.759 1103.98 240.577C1098.78 243.612 1093.79 245.13 1089.02 245.13ZM1249.67 174.888C1248.58 181.608 1247.5 188.004 1246.42 194.074C1245.55 200.145 1245.01 205.022 1244.79 208.708C1244.57 214.128 1245.55 218.03 1247.72 220.415C1249.89 222.8 1252.27 223.992 1254.87 223.992C1257.91 223.992 1261.59 222.475 1265.93 219.439C1270.48 216.404 1275.25 212.61 1280.24 208.058C1285.22 203.505 1290.21 198.519 1295.2 193.099C1300.18 187.679 1304.74 182.584 1308.85 177.814C1313.19 172.828 1316.77 168.492 1319.59 164.807C1322.62 161.121 1324.68 158.736 1325.76 157.652C1327.07 156.352 1328.37 155.593 1329.67 155.376C1331.18 155.159 1332.38 155.376 1333.24 156.026C1334.11 156.677 1334.54 157.869 1334.54 159.604C1334.54 161.338 1333.68 163.506 1331.94 166.107C1329.34 170.227 1325.98 175.104 1321.86 180.741C1317.74 186.161 1313.19 191.798 1308.2 197.651C1303.22 203.505 1297.91 209.25 1292.27 214.887C1286.85 220.523 1281.32 225.51 1275.68 229.846C1270.26 234.182 1264.95 237.65 1259.75 240.252C1254.76 243.07 1250.21 244.479 1246.09 244.479C1243.06 244.479 1240.13 243.612 1237.31 241.878C1234.71 240.144 1232.33 237.867 1230.16 235.049C1227.99 232.23 1226.25 229.087 1224.95 225.618C1223.87 222.149 1223.44 218.681 1223.65 215.212C1223.87 213.694 1224.2 211.093 1224.63 207.407C1215.52 217.597 1206.31 225.727 1196.99 231.797C1187.88 237.65 1179.1 240.577 1170.65 240.577C1167.61 240.577 1164.36 239.818 1160.89 238.301C1157.42 236.783 1154.28 234.29 1151.46 230.821C1148.86 227.353 1146.69 222.8 1144.96 217.163C1143.22 211.526 1142.57 204.697 1143 196.676C1143.66 184.102 1146.15 172.178 1150.48 160.904C1154.82 149.631 1160.24 139.875 1166.74 131.637C1173.46 123.182 1180.94 116.569 1189.18 111.8C1197.64 106.813 1206.09 104.32 1214.55 104.32C1218.23 104.32 1221.59 105.296 1224.63 107.247C1227.66 108.981 1230.27 111.366 1232.43 114.401C1234.6 117.22 1236.34 120.363 1237.64 123.832C1239.15 127.301 1240.24 130.553 1240.89 133.588C1242.41 127.301 1243.82 121.122 1245.12 115.052C1246.42 108.981 1247.72 103.236 1249.02 97.8164C1251.19 89.7949 1253.46 81.123 1255.85 71.8008C1258.02 63.7793 1260.51 54.5654 1263.33 44.1592C1266.15 33.7529 1269.29 22.8047 1272.76 11.3145C1274.93 9.58008 1276.99 8.2793 1278.94 7.41211C1280.89 6.54492 1282.73 5.89453 1284.46 5.46094C1286.42 4.81055 1288.26 4.48535 1289.99 4.48535C1292.16 4.48535 1294.11 4.81055 1295.85 5.46094C1297.58 5.89453 1298.99 7.30371 1300.07 9.68848C1301.38 11.8564 1302.24 15.2168 1302.68 19.7695C1303.11 24.3223 1303.11 30.501 1302.68 38.3057C1302.24 47.8447 1300.51 58.251 1297.47 69.5244C1294.65 80.7979 1290.86 92.5049 1286.09 104.646C1281.32 116.569 1275.79 128.602 1269.51 140.742C1263.44 152.666 1256.82 164.048 1249.67 174.888ZM1230.48 179.115C1231.35 174.996 1232.11 170.877 1232.76 166.758C1233.63 162.639 1234.6 158.411 1235.69 154.075C1235.25 154.292 1234.82 154.509 1234.38 154.726C1234.17 154.942 1233.84 155.159 1233.41 155.376C1231.02 156.46 1229.4 156.46 1228.53 155.376C1227.66 154.075 1227.23 152.124 1227.23 149.522C1227.23 148.222 1227.12 145.945 1226.91 142.693C1226.69 139.225 1226.04 135.756 1224.95 132.287C1224.09 128.602 1222.68 125.458 1220.73 122.856C1218.78 120.038 1216.07 118.629 1212.6 118.629C1207.61 118.629 1202.52 121.23 1197.31 126.434C1192.11 131.42 1187.23 137.599 1182.68 144.97C1178.13 152.124 1174.33 159.82 1171.3 168.059C1168.26 176.297 1166.53 183.668 1166.09 190.172C1165.66 200.578 1166.96 208.058 1170 212.61C1173.03 217.163 1177.15 219.439 1182.35 219.439C1186.26 219.439 1190.48 217.922 1195.04 214.887C1199.81 211.852 1204.36 208.166 1208.69 203.83C1213.25 199.494 1217.37 195.05 1221.05 190.497C1224.95 185.944 1228.1 182.15 1230.48 179.115Z" fill="#3AC162"/>
</g>
<defs>
<clipPath id="clip0_1_2">
<rect width="1358" height="385" fill="white"/>
</clipPath>
</defs>
</svg>
